<?xml version="1.0" standalone="no"?>
<!DOCTYPE svg PUBLIC "-//W3C//DTD SVG 1.1//EN" 
"http://www.w3.org/Graphics/SVG/1.1/DTD/svg11.dtd">
<?xml-stylesheet type="text/css" href="/static/hadoop.css"?>

<svg width="792" height="240" version="1.1"
xmlns="http://www.w3.org/2000/svg">

<line x1="79" x2="79" y1="221" y2="19" class="taskgraphline" style="stroke:black"/>
<line x1="79" x2="713" y1="221" y2="221" class="taskgraphline" style="stroke:black"/>
<line x1="713" x2="713" y1="221" y2="19" class="taskgraphline" style="stroke:#CCCCCC"/>
<line x1="79" x2="713" y1="19" y2="19" class="taskgraphline" style="stroke:#CCCCCC"/>
<line x1="80" x2="80" y1="223" y2="218" class="taskgraphline" style="stroke:black"/>
<text x="80" y="235" style="fill:black;font-family:sans-serif;text-anchor:middle">0</text>
<rect width="10" height="200" x="80" y="20" style="fill:#AAAAFF"/>
<rect width="10" height="200" x="91" y="20" style="fill:#AAAAFF"/>
<rect width="10" height="200" x="102" y="20" style="fill:#AAAAFF"/>
<rect width="10" height="200" x="113" y="20" style="fill:#AAAAFF"/>
<line x1="124" x2="124" y1="223" y2="218" class="taskgraphline" style="stroke:black"/>
<text x="124" y="235" style="fill:black;font-family:sans-serif;text-anchor:middle">4</text>
<rect width="10" height="200" x="124" y="20" style="fill:#AAAAFF"/>
<rect width="10" height="200" x="135" y="20" style="fill:#AAAAFF"/>
<rect width="10" height="200" x="146" y="20" style="fill:#AAAAFF"/>
<rect width="10" height="200" x="157" y="20" style="fill:#AAAAFF"/>
<line x1="168" x2="168" y1="223" y2="218" class="taskgraphline" style="stroke:black"/>
<text x="168" y="235" style="fill:black;font-family:sans-serif;text-anchor:middle">8</text>
<rect width="10" height="200" x="168" y="20" style="fill:#AAAAFF"/>
<rect width="10" height="200" x="179" y="20" style="fill:#AAAAFF"/>
<rect width="10" height="200" x="190" y="20" style="fill:#AAAAFF"/>
<rect width="10" height="200" x="201" y="20" style="fill:#AAAAFF"/>
<line x1="212" x2="212" y1="223" y2="218" class="taskgraphline" style="stroke:black"/>
<text x="212" y="235" style="fill:black;font-family:sans-serif;text-anchor:middle">12</text>
<rect width="10" height="200" x="212" y="20" style="fill:#AAAAFF"/>
<rect width="10" height="200" x="223" y="20" style="fill:#AAAAFF"/>
<rect width="10" height="200" x="234" y="20" style="fill:#AAAAFF"/>
<rect width="10" height="200" x="245" y="20" style="fill:#AAAAFF"/>
<line x1="256" x2="256" y1="223" y2="218" class="taskgraphline" style="stroke:black"/>
<text x="256" y="235" style="fill:black;font-family:sans-serif;text-anchor:middle">16</text>
<rect width="10" height="200" x="256" y="20" style="fill:#AAAAFF"/>
<rect width="10" height="200" x="267" y="20" style="fill:#AAAAFF"/>
<rect width="10" height="200" x="278" y="20" style="fill:#AAAAFF"/>
<rect width="10" height="200" x="289" y="20" style="fill:#AAAAFF"/>
<line x1="300" x2="300" y1="223" y2="218" class="taskgraphline" style="stroke:black"/>
<text x="300" y="235" style="fill:black;font-family:sans-serif;text-anchor:middle">20</text>
<rect width="10" height="200" x="300" y="20" style="fill:#AAAAFF"/>
<rect width="10" height="200" x="311" y="20" style="fill:#AAAAFF"/>
<rect width="10" height="200" x="322" y="20" style="fill:#AAAAFF"/>
<rect width="10" height="200" x="333" y="20" style="fill:#AAAAFF"/>
<line x1="344" x2="344" y1="223" y2="218" class="taskgraphline" style="stroke:black"/>
<text x="344" y="235" style="fill:black;font-family:sans-serif;text-anchor:middle">24</text>
<rect width="10" height="200" x="344" y="20" style="fill:#AAAAFF"/>
<rect width="10" height="200" x="355" y="20" style="fill:#AAAAFF"/>
<rect width="10" height="200" x="366" y="20" style="fill:#AAAAFF"/>
<rect width="10" height="200" x="377" y="20" style="fill:#AAAAFF"/>
<line x1="388" x2="388" y1="223" y2="218" class="taskgraphline" style="stroke:black"/>
<text x="388" y="235" style="fill:black;font-family:sans-serif;text-anchor:middle">28</text>
<rect width="10" height="200" x="388" y="20" style="fill:#AAAAFF"/>
<rect width="10" height="200" x="399" y="20" style="fill:#AAAAFF"/>
<rect width="10" height="200" x="410" y="20" style="fill:#AAAAFF"/>
<rect width="10" height="200" x="421" y="20" style="fill:#AAAAFF"/>
<line x1="432" x2="432" y1="223" y2="218" class="taskgraphline" style="stroke:black"/>
<text x="432" y="235" style="fill:black;font-family:sans-serif;text-anchor:middle">32</text>
<line x1="77" x2="82" y1="20" y2="20" class="taskgraphline" style="stroke:black"/>
<text x="70" y="24" style="fill:black;font-family:sans-serif;text-anchor:end">100</text>
<line x1="77" x2="82" y1="40" y2="40" class="taskgraphline" style="stroke:black"/>
<text x="70" y="44" style="fill:black;font-family:sans-serif;text-anchor:end">90</text>
<line x1="77" x2="82" y1="60" y2="60" class="taskgraphline" style="stroke:black"/>
<text x="70" y="64" style="fill:black;font-family:sans-serif;text-anchor:end">80</text>
<line x1="77" x2="82" y1="80" y2="80" class="taskgraphline" style="stroke:black"/>
<text x="70" y="84" style="fill:black;font-family:sans-serif;text-anchor:end">70</text>
<line x1="77" x2="82" y1="100" y2="100" class="taskgraphline" style="stroke:black"/>
<text x="70" y="104" style="fill:black;font-family:sans-serif;text-anchor:end">60</text>
<line x1="77" x2="82" y1="120" y2="120" class="taskgraphline" style="stroke:black"/>
<text x="70" y="124" style="fill:black;font-family:sans-serif;text-anchor:end">50</text>
<line x1="77" x2="82" y1="140" y2="140" class="taskgraphline" style="stroke:black"/>
<text x="70" y="144" style="fill:black;font-family:sans-serif;text-anchor:end">40</text>
<line x1="77" x2="82" y1="160" y2="160" class="taskgraphline" style="stroke:black"/>
<text x="70" y="164" style="fill:black;font-family:sans-serif;text-anchor:end">30</text>
<line x1="77" x2="82" y1="180" y2="180" class="taskgraphline" style="stroke:black"/>
<text x="70" y="184" style="fill:black;font-family:sans-serif;text-anchor:end">20</text>
<line x1="77" x2="82" y1="200" y2="200" class="taskgraphline" style="stroke:black"/>
<text x="70" y="204" style="fill:black;font-family:sans-serif;text-anchor:end">10</text>
<line x1="77" x2="82" y1="220" y2="220" class="taskgraphline" style="stroke:black"/>
<text x="70" y="224" style="fill:black;font-family:sans-serif;text-anchor:end">0</text>
</svg>