<?xml version="1.0" standalone="no"?>
<!DOCTYPE svg PUBLIC "-//W3C//DTD SVG 1.1//EN" 
"http://www.w3.org/Graphics/SVG/1.1/DTD/svg11.dtd">
<?xml-stylesheet type="text/css" href="/static/hadoop.css"?>

<svg width="802" height="240" version="1.1"
xmlns="http://www.w3.org/2000/svg">

<line x1="79" x2="79" y1="221" y2="19" class="taskgraphline" style="stroke:black"/>
<line x1="79" x2="723" y1="221" y2="221" class="taskgraphline" style="stroke:black"/>
<line x1="723" x2="723" y1="221" y2="19" class="taskgraphline" style="stroke:#CCCCCC"/>
<line x1="79" x2="723" y1="19" y2="19" class="taskgraphline" style="stroke:#CCCCCC"/>
<line x1="80" x2="80" y1="223" y2="218" class="taskgraphline" style="stroke:black"/>
<text x="80" y="235" style="fill:black;font-family:sans-serif;text-anchor:middle">0</text>
<rect width="2" height="200" x="80" y="20" style="fill:#AAAAFF"/>
<rect width="2" height="200" x="82" y="20" style="fill:#AAAAFF"/>
<rect width="2" height="200" x="84" y="20" style="fill:#AAAAFF"/>
<rect width="2" height="200" x="86" y="20" style="fill:#AAAAFF"/>
<rect width="2" height="200" x="88" y="20" style="fill:#AAAAFF"/>
<rect width="2" height="200" x="91" y="20" style="fill:#AAAAFF"/>
<rect width="2" height="200" x="93" y="20" style="fill:#AAAAFF"/>
<rect width="2" height="200" x="95" y="20" style="fill:#AAAAFF"/>
<rect width="2" height="200" x="97" y="20" style="fill:#AAAAFF"/>
<rect width="2" height="200" x="99" y="20" style="fill:#AAAAFF"/>
<rect width="2" height="200" x="102" y="20" style="fill:#AAAAFF"/>
<rect width="2" height="200" x="104" y="20" style="fill:#AAAAFF"/>
<rect width="2" height="200" x="106" y="20" style="fill:#AAAAFF"/>
<rect width="2" height="200" x="108" y="20" style="fill:#AAAAFF"/>
<rect width="2" height="200" x="110" y="20" style="fill:#AAAAFF"/>
<rect width="2" height="200" x="113" y="20" style="fill:#AAAAFF"/>
<rect width="2" height="200" x="115" y="20" style="fill:#AAAAFF"/>
<rect width="2" height="200" x="117" y="20" style="fill:#AAAAFF"/>
<rect width="2" height="200" x="119" y="20" style="fill:#AAAAFF"/>
<rect width="2" height="200" x="121" y="20" style="fill:#AAAAFF"/>
<rect width="2" height="200" x="124" y="20" style="fill:#AAAAFF"/>
<line x1="126" x2="126" y1="223" y2="218" class="taskgraphline" style="stroke:black"/>
<text x="126" y="235" style="fill:black;font-family:sans-serif;text-anchor:middle">21</text>
<rect width="2" height="200" x="126" y="20" style="fill:#AAAAFF"/>
<rect width="2" height="200" x="128" y="20" style="fill:#AAAAFF"/>
<rect width="2" height="200" x="130" y="20" style="fill:#AAAAFF"/>
<rect width="2" height="200" x="132" y="20" style="fill:#AAAAFF"/>
<rect width="2" height="200" x="135" y="20" style="fill:#AAAAFF"/>
<rect width="2" height="200" x="137" y="20" style="fill:#AAAAFF"/>
<rect width="2" height="200" x="139" y="20" style="fill:#AAAAFF"/>
<rect width="2" height="200" x="141" y="20" style="fill:#AAAAFF"/>
<rect width="2" height="200" x="143" y="20" style="fill:#AAAAFF"/>
<rect width="2" height="200" x="146" y="20" style="fill:#AAAAFF"/>
<rect width="2" height="200" x="148" y="20" style="fill:#AAAAFF"/>
<rect width="2" height="200" x="150" y="20" style="fill:#AAAAFF"/>
<rect width="2" height="200" x="152" y="20" style="fill:#AAAAFF"/>
<rect width="2" height="200" x="154" y="20" style="fill:#AAAAFF"/>
<rect width="2" height="200" x="157" y="20" style="fill:#AAAAFF"/>
<rect width="2" height="200" x="159" y="20" style="fill:#AAAAFF"/>
<rect width="2" height="200" x="161" y="20" style="fill:#AAAAFF"/>
<rect width="2" height="200" x="163" y="20" style="fill:#AAAAFF"/>
<rect width="2" height="200" x="165" y="20" style="fill:#AAAAFF"/>
<rect width="2" height="200" x="168" y="20" style="fill:#AAAAFF"/>
<rect width="2" height="200" x="170" y="20" style="fill:#AAAAFF"/>
<line x1="172" x2="172" y1="223" y2="218" class="taskgraphline" style="stroke:black"/>
<text x="172" y="235" style="fill:black;font-family:sans-serif;text-anchor:middle">42</text>
<rect width="2" height="200" x="172" y="20" style="fill:#AAAAFF"/>
<rect width="2" height="200" x="174" y="20" style="fill:#AAAAFF"/>
<rect width="2" height="200" x="176" y="20" style="fill:#AAAAFF"/>
<rect width="2" height="200" x="179" y="20" style="fill:#AAAAFF"/>
<rect width="2" height="200" x="181" y="20" style="fill:#AAAAFF"/>
<rect width="2" height="200" x="183" y="20" style="fill:#AAAAFF"/>
<rect width="2" height="200" x="185" y="20" style="fill:#AAAAFF"/>
<rect width="2" height="200" x="187" y="20" style="fill:#AAAAFF"/>
<rect width="2" height="200" x="190" y="20" style="fill:#AAAAFF"/>
<rect width="2" height="200" x="192" y="20" style="fill:#AAAAFF"/>
<rect width="2" height="200" x="194" y="20" style="fill:#AAAAFF"/>
<rect width="2" height="200" x="196" y="20" style="fill:#AAAAFF"/>
<rect width="2" height="200" x="198" y="20" style="fill:#AAAAFF"/>
<rect width="2" height="200" x="201" y="20" style="fill:#AAAAFF"/>
<rect width="2" height="200" x="203" y="20" style="fill:#AAAAFF"/>
<rect width="2" height="200" x="205" y="20" style="fill:#AAAAFF"/>
<rect width="2" height="200" x="207" y="20" style="fill:#AAAAFF"/>
<rect width="2" height="200" x="209" y="20" style="fill:#AAAAFF"/>
<rect width="2" height="200" x="212" y="20" style="fill:#AAAAFF"/>
<rect width="2" height="200" x="214" y="20" style="fill:#AAAAFF"/>
<rect width="2" height="200" x="216" y="20" style="fill:#AAAAFF"/>
<line x1="218" x2="218" y1="223" y2="218" class="taskgraphline" style="stroke:black"/>
<text x="218" y="235" style="fill:black;font-family:sans-serif;text-anchor:middle">63</text>
<rect width="2" height="200" x="218" y="20" style="fill:#AAAAFF"/>
<rect width="2" height="200" x="220" y="20" style="fill:#AAAAFF"/>
<rect width="2" height="200" x="223" y="20" style="fill:#AAAAFF"/>
<rect width="2" height="200" x="225" y="20" style="fill:#AAAAFF"/>
<rect width="2" height="200" x="227" y="20" style="fill:#AAAAFF"/>
<rect width="2" height="200" x="229" y="20" style="fill:#AAAAFF"/>
<rect width="2" height="200" x="231" y="20" style="fill:#AAAAFF"/>
<rect width="2" height="200" x="234" y="20" style="fill:#AAAAFF"/>
<rect width="2" height="200" x="236" y="20" style="fill:#AAAAFF"/>
<rect width="2" height="200" x="238" y="20" style="fill:#AAAAFF"/>
<rect width="2" height="200" x="240" y="20" style="fill:#AAAAFF"/>
<rect width="2" height="200" x="242" y="20" style="fill:#AAAAFF"/>
<rect width="2" height="200" x="245" y="20" style="fill:#AAAAFF"/>
<rect width="2" height="200" x="247" y="20" style="fill:#AAAAFF"/>
<rect width="2" height="200" x="249" y="20" style="fill:#AAAAFF"/>
<rect width="2" height="200" x="251" y="20" style="fill:#AAAAFF"/>
<rect width="2" height="200" x="253" y="20" style="fill:#AAAAFF"/>
<rect width="2" height="200" x="256" y="20" style="fill:#AAAAFF"/>
<rect width="2" height="200" x="258" y="20" style="fill:#AAAAFF"/>
<rect width="2" height="200" x="260" y="20" style="fill:#AAAAFF"/>
<rect width="2" height="200" x="262" y="20" style="fill:#AAAAFF"/>
<line x1="264" x2="264" y1="223" y2="218" class="taskgraphline" style="stroke:black"/>
<text x="264" y="235" style="fill:black;font-family:sans-serif;text-anchor:middle">84</text>
<rect width="2" height="200" x="264" y="20" style="fill:#AAAAFF"/>
<rect width="2" height="200" x="267" y="20" style="fill:#AAAAFF"/>
<rect width="2" height="200" x="269" y="20" style="fill:#AAAAFF"/>
<rect width="2" height="200" x="271" y="20" style="fill:#AAAAFF"/>
<rect width="2" height="200" x="273" y="20" style="fill:#AAAAFF"/>
<rect width="2" height="200" x="275" y="20" style="fill:#AAAAFF"/>
<rect width="2" height="200" x="278" y="20" style="fill:#AAAAFF"/>
<rect width="2" height="200" x="280" y="20" style="fill:#AAAAFF"/>
<rect width="2" height="200" x="282" y="20" style="fill:#AAAAFF"/>
<rect width="2" height="200" x="284" y="20" style="fill:#AAAAFF"/>
<rect width="2" height="200" x="286" y="20" style="fill:#AAAAFF"/>
<rect width="2" height="200" x="289" y="20" style="fill:#AAAAFF"/>
<rect width="2" height="200" x="291" y="20" style="fill:#AAAAFF"/>
<rect width="2" height="200" x="293" y="20" style="fill:#AAAAFF"/>
<rect width="2" height="200" x="295" y="20" style="fill:#AAAAFF"/>
<rect width="2" height="200" x="297" y="20" style="fill:#AAAAFF"/>
<rect width="2" height="200" x="300" y="20" style="fill:#AAAAFF"/>
<rect width="2" height="200" x="302" y="20" style="fill:#AAAAFF"/>
<rect width="2" height="200" x="304" y="20" style="fill:#AAAAFF"/>
<rect width="2" height="200" x="306" y="20" style="fill:#AAAAFF"/>
<rect width="2" height="200" x="308" y="20" style="fill:#AAAAFF"/>
<line x1="311" x2="311" y1="223" y2="218" class="taskgraphline" style="stroke:black"/>
<text x="311" y="235" style="fill:black;font-family:sans-serif;text-anchor:middle">105</text>
<rect width="2" height="200" x="311" y="20" style="fill:#AAAAFF"/>
<rect width="2" height="200" x="313" y="20" style="fill:#AAAAFF"/>
<rect width="2" height="200" x="315" y="20" style="fill:#AAAAFF"/>
<rect width="2" height="200" x="317" y="20" style="fill:#AAAAFF"/>
<rect width="2" height="200" x="319" y="20" style="fill:#AAAAFF"/>
<rect width="2" height="200" x="322" y="20" style="fill:#AAAAFF"/>
<rect width="2" height="200" x="324" y="20" style="fill:#AAAAFF"/>
<rect width="2" height="200" x="326" y="20" style="fill:#AAAAFF"/>
<rect width="2" height="200" x="328" y="20" style="fill:#AAAAFF"/>
<rect width="2" height="200" x="330" y="20" style="fill:#AAAAFF"/>
<rect width="2" height="200" x="333" y="20" style="fill:#AAAAFF"/>
<rect width="2" height="200" x="335" y="20" style="fill:#AAAAFF"/>
<rect width="2" height="200" x="337" y="20" style="fill:#AAAAFF"/>
<rect width="2" height="200" x="339" y="20" style="fill:#AAAAFF"/>
<rect width="2" height="200" x="341" y="20" style="fill:#AAAAFF"/>
<rect width="2" height="200" x="344" y="20" style="fill:#AAAAFF"/>
<rect width="2" height="200" x="346" y="20" style="fill:#AAAAFF"/>
<rect width="2" height="200" x="348" y="20" style="fill:#AAAAFF"/>
<rect width="2" height="200" x="350" y="20" style="fill:#AAAAFF"/>
<rect width="2" height="200" x="352" y="20" style="fill:#AAAAFF"/>
<rect width="2" height="200" x="355" y="20" style="fill:#AAAAFF"/>
<line x1="357" x2="357" y1="223" y2="218" class="taskgraphline" style="stroke:black"/>
<text x="357" y="235" style="fill:black;font-family:sans-serif;text-anchor:middle">126</text>
<rect width="2" height="200" x="357" y="20" style="fill:#AAAAFF"/>
<rect width="2" height="200" x="359" y="20" style="fill:#AAAAFF"/>
<rect width="2" height="200" x="361" y="20" style="fill:#AAAAFF"/>
<rect width="2" height="200" x="363" y="20" style="fill:#AAAAFF"/>
<rect width="2" height="200" x="366" y="20" style="fill:#AAAAFF"/>
<rect width="2" height="200" x="368" y="20" style="fill:#AAAAFF"/>
<rect width="2" height="200" x="370" y="20" style="fill:#AAAAFF"/>
<rect width="2" height="200" x="372" y="20" style="fill:#AAAAFF"/>
<rect width="2" height="200" x="374" y="20" style="fill:#AAAAFF"/>
<rect width="2" height="200" x="377" y="20" style="fill:#AAAAFF"/>
<rect width="2" height="200" x="379" y="20" style="fill:#AAAAFF"/>
<rect width="2" height="200" x="381" y="20" style="fill:#AAAAFF"/>
<rect width="2" height="200" x="383" y="20" style="fill:#AAAAFF"/>
<rect width="2" height="200" x="385" y="20" style="fill:#AAAAFF"/>
<rect width="2" height="200" x="388" y="20" style="fill:#AAAAFF"/>
<rect width="2" height="200" x="390" y="20" style="fill:#AAAAFF"/>
<rect width="2" height="200" x="392" y="20" style="fill:#AAAAFF"/>
<rect width="2" height="200" x="394" y="20" style="fill:#AAAAFF"/>
<rect width="2" height="200" x="396" y="20" style="fill:#AAAAFF"/>
<rect width="2" height="200" x="399" y="20" style="fill:#AAAAFF"/>
<rect width="2" height="200" x="401" y="20" style="fill:#AAAAFF"/>
<line x1="403" x2="403" y1="223" y2="218" class="taskgraphline" style="stroke:black"/>
<text x="403" y="235" style="fill:black;font-family:sans-serif;text-anchor:middle">147</text>
<rect width="2" height="200" x="403" y="20" style="fill:#AAAAFF"/>
<rect width="2" height="200" x="405" y="20" style="fill:#AAAAFF"/>
<rect width="2" height="200" x="407" y="20" style="fill:#AAAAFF"/>
<rect width="2" height="200" x="410" y="20" style="fill:#AAAAFF"/>
<rect width="2" height="200" x="412" y="20" style="fill:#AAAAFF"/>
<rect width="2" height="200" x="414" y="20" style="fill:#AAAAFF"/>
<rect width="2" height="200" x="416" y="20" style="fill:#AAAAFF"/>
<rect width="2" height="200" x="418" y="20" style="fill:#AAAAFF"/>
<rect width="2" height="200" x="421" y="20" style="fill:#AAAAFF"/>
<rect width="2" height="200" x="423" y="20" style="fill:#AAAAFF"/>
<rect width="2" height="200" x="425" y="20" style="fill:#AAAAFF"/>
<rect width="2" height="200" x="427" y="20" style="fill:#AAAAFF"/>
<rect width="2" height="200" x="429" y="20" style="fill:#AAAAFF"/>
<rect width="2" height="200" x="432" y="20" style="fill:#AAAAFF"/>
<rect width="2" height="200" x="434" y="20" style="fill:#AAAAFF"/>
<rect width="2" height="200" x="436" y="20" style="fill:#AAAAFF"/>
<rect width="2" height="200" x="438" y="20" style="fill:#AAAAFF"/>
<rect width="2" height="200" x="440" y="20" style="fill:#AAAAFF"/>
<rect width="2" height="200" x="443" y="20" style="fill:#AAAAFF"/>
<rect width="2" height="200" x="445" y="20" style="fill:#AAAAFF"/>
<rect width="2" height="200" x="447" y="20" style="fill:#AAAAFF"/>
<line x1="449" x2="449" y1="223" y2="218" class="taskgraphline" style="stroke:black"/>
<text x="449" y="235" style="fill:black;font-family:sans-serif;text-anchor:middle">168</text>
<rect width="2" height="200" x="449" y="20" style="fill:#AAAAFF"/>
<rect width="2" height="200" x="451" y="20" style="fill:#AAAAFF"/>
<rect width="2" height="200" x="454" y="20" style="fill:#AAAAFF"/>
<rect width="2" height="200" x="456" y="20" style="fill:#AAAAFF"/>
<rect width="2" height="200" x="458" y="20" style="fill:#AAAAFF"/>
<rect width="2" height="200" x="460" y="20" style="fill:#AAAAFF"/>
<rect width="2" height="200" x="462" y="20" style="fill:#AAAAFF"/>
<rect width="2" height="200" x="465" y="20" style="fill:#AAAAFF"/>
<rect width="2" height="200" x="467" y="20" style="fill:#AAAAFF"/>
<rect width="2" height="200" x="469" y="20" style="fill:#AAAAFF"/>
<rect width="2" height="200" x="471" y="20" style="fill:#AAAAFF"/>
<rect width="2" height="200" x="473" y="20" style="fill:#AAAAFF"/>
<rect width="2" height="200" x="476" y="20" style="fill:#AAAAFF"/>
<rect width="2" height="200" x="478" y="20" style="fill:#AAAAFF"/>
<rect width="2" height="200" x="480" y="20" style="fill:#AAAAFF"/>
<rect width="2" height="200" x="482" y="20" style="fill:#AAAAFF"/>
<rect width="2" height="200" x="484" y="20" style="fill:#AAAAFF"/>
<rect width="2" height="200" x="487" y="20" style="fill:#AAAAFF"/>
<rect width="2" height="200" x="489" y="20" style="fill:#AAAAFF"/>
<rect width="2" height="200" x="491" y="20" style="fill:#AAAAFF"/>
<rect width="2" height="200" x="493" y="20" style="fill:#AAAAFF"/>
<line x1="495" x2="495" y1="223" y2="218" class="taskgraphline" style="stroke:black"/>
<text x="495" y="235" style="fill:black;font-family:sans-serif;text-anchor:middle">189</text>
<rect width="2" height="200" x="495" y="20" style="fill:#AAAAFF"/>
<rect width="2" height="200" x="498" y="20" style="fill:#AAAAFF"/>
<rect width="2" height="200" x="500" y="20" style="fill:#AAAAFF"/>
<rect width="2" height="200" x="502" y="20" style="fill:#AAAAFF"/>
<rect width="2" height="200" x="504" y="20" style="fill:#AAAAFF"/>
<rect width="2" height="200" x="506" y="20" style="fill:#AAAAFF"/>
<rect width="2" height="200" x="509" y="20" style="fill:#AAAAFF"/>
<rect width="2" height="200" x="511" y="20" style="fill:#AAAAFF"/>
<rect width="2" height="200" x="513" y="20" style="fill:#AAAAFF"/>
<rect width="2" height="200" x="515" y="20" style="fill:#AAAAFF"/>
<rect width="2" height="200" x="517" y="20" style="fill:#AAAAFF"/>
<rect width="2" height="200" x="520" y="20" style="fill:#AAAAFF"/>
<rect width="2" height="200" x="522" y="20" style="fill:#AAAAFF"/>
<rect width="2" height="200" x="524" y="20" style="fill:#AAAAFF"/>
<rect width="2" height="200" x="526" y="20" style="fill:#AAAAFF"/>
<rect width="2" height="200" x="528" y="20" style="fill:#AAAAFF"/>
<rect width="2" height="200" x="531" y="20" style="fill:#AAAAFF"/>
<rect width="2" height="200" x="533" y="20" style="fill:#AAAAFF"/>
<rect width="2" height="200" x="535" y="20" style="fill:#AAAAFF"/>
<rect width="2" height="200" x="537" y="20" style="fill:#AAAAFF"/>
<rect width="2" height="200" x="539" y="20" style="fill:#AAAAFF"/>
<line x1="542" x2="542" y1="223" y2="218" class="taskgraphline" style="stroke:black"/>
<text x="542" y="235" style="fill:black;font-family:sans-serif;text-anchor:middle">210</text>
<line x1="77" x2="82" y1="20" y2="20" class="taskgraphline" style="stroke:black"/>
<text x="70" y="24" style="fill:black;font-family:sans-serif;text-anchor:end">100</text>
<line x1="77" x2="82" y1="40" y2="40" class="taskgraphline" style="stroke:black"/>
<text x="70" y="44" style="fill:black;font-family:sans-serif;text-anchor:end">90</text>
<line x1="77" x2="82" y1="60" y2="60" class="taskgraphline" style="stroke:black"/>
<text x="70" y="64" style="fill:black;font-family:sans-serif;text-anchor:end">80</text>
<line x1="77" x2="82" y1="80" y2="80" class="taskgraphline" style="stroke:black"/>
<text x="70" y="84" style="fill:black;font-family:sans-serif;text-anchor:end">70</text>
<line x1="77" x2="82" y1="100" y2="100" class="taskgraphline" style="stroke:black"/>
<text x="70" y="104" style="fill:black;font-family:sans-serif;text-anchor:end">60</text>
<line x1="77" x2="82" y1="120" y2="120" class="taskgraphline" style="stroke:black"/>
<text x="70" y="124" style="fill:black;font-family:sans-serif;text-anchor:end">50</text>
<line x1="77" x2="82" y1="140" y2="140" class="taskgraphline" style="stroke:black"/>
<text x="70" y="144" style="fill:black;font-family:sans-serif;text-anchor:end">40</text>
<line x1="77" x2="82" y1="160" y2="160" class="taskgraphline" style="stroke:black"/>
<text x="70" y="164" style="fill:black;font-family:sans-serif;text-anchor:end">30</text>
<line x1="77" x2="82" y1="180" y2="180" class="taskgraphline" style="stroke:black"/>
<text x="70" y="184" style="fill:black;font-family:sans-serif;text-anchor:end">20</text>
<line x1="77" x2="82" y1="200" y2="200" class="taskgraphline" style="stroke:black"/>
<text x="70" y="204" style="fill:black;font-family:sans-serif;text-anchor:end">10</text>
<line x1="77" x2="82" y1="220" y2="220" class="taskgraphline" style="stroke:black"/>
<text x="70" y="224" style="fill:black;font-family:sans-serif;text-anchor:end">0</text>
</svg>