<?xml version="1.0" standalone="no"?>
<!DOCTYPE svg PUBLIC "-//W3C//DTD SVG 1.1//EN" 
"http://www.w3.org/Graphics/SVG/1.1/DTD/svg11.dtd">
<?xml-stylesheet type="text/css" href="/static/hadoop.css"?>

<svg width="791" height="240" version="1.1"
xmlns="http://www.w3.org/2000/svg">

<line x1="79" x2="79" y1="221" y2="19" class="taskgraphline" style="stroke:black"/>
<line x1="79" x2="712" y1="221" y2="221" class="taskgraphline" style="stroke:black"/>
<line x1="712" x2="712" y1="221" y2="19" class="taskgraphline" style="stroke:#CCCCCC"/>
<line x1="79" x2="712" y1="19" y2="19" class="taskgraphline" style="stroke:#CCCCCC"/>
<line x1="80" x2="80" y1="223" y2="218" class="taskgraphline" style="stroke:black"/>
<text x="80" y="235" style="fill:black;font-family:sans-serif;text-anchor:middle">0</text>
<rect width="1" height="200" x="80" y="20" style="fill:#AAAAFF"/>
<rect width="1" height="200" x="81" y="20" style="fill:#AAAAFF"/>
<rect width="1" height="200" x="82" y="20" style="fill:#AAAAFF"/>
<rect width="1" height="200" x="83" y="20" style="fill:#AAAAFF"/>
<rect width="1" height="200" x="84" y="20" style="fill:#AAAAFF"/>
<rect width="1" height="200" x="85" y="20" style="fill:#AAAAFF"/>
<rect width="1" height="200" x="86" y="20" style="fill:#AAAAFF"/>
<rect width="1" height="200" x="87" y="20" style="fill:#AAAAFF"/>
<rect width="1" height="200" x="88" y="20" style="fill:#AAAAFF"/>
<rect width="1" height="200" x="89" y="20" style="fill:#AAAAFF"/>
<rect width="1" height="200" x="91" y="20" style="fill:#AAAAFF"/>
<rect width="1" height="200" x="92" y="20" style="fill:#AAAAFF"/>
<rect width="1" height="200" x="93" y="20" style="fill:#AAAAFF"/>
<rect width="1" height="200" x="94" y="20" style="fill:#AAAAFF"/>
<rect width="1" height="200" x="95" y="20" style="fill:#AAAAFF"/>
<rect width="1" height="200" x="96" y="20" style="fill:#AAAAFF"/>
<rect width="1" height="200" x="97" y="20" style="fill:#AAAAFF"/>
<rect width="1" height="200" x="98" y="20" style="fill:#AAAAFF"/>
<rect width="1" height="200" x="99" y="20" style="fill:#AAAAFF"/>
<rect width="1" height="200" x="100" y="20" style="fill:#AAAAFF"/>
<rect width="1" height="200" x="102" y="20" style="fill:#AAAAFF"/>
<rect width="1" height="200" x="103" y="20" style="fill:#AAAAFF"/>
<rect width="1" height="200" x="104" y="20" style="fill:#AAAAFF"/>
<rect width="1" height="200" x="105" y="20" style="fill:#AAAAFF"/>
<rect width="1" height="200" x="106" y="20" style="fill:#AAAAFF"/>
<rect width="1" height="200" x="107" y="20" style="fill:#AAAAFF"/>
<rect width="1" height="200" x="108" y="20" style="fill:#AAAAFF"/>
<rect width="1" height="200" x="109" y="20" style="fill:#AAAAFF"/>
<rect width="1" height="200" x="110" y="20" style="fill:#AAAAFF"/>
<rect width="1" height="200" x="111" y="20" style="fill:#AAAAFF"/>
<rect width="1" height="200" x="113" y="20" style="fill:#AAAAFF"/>
<rect width="1" height="200" x="114" y="20" style="fill:#AAAAFF"/>
<line x1="115" x2="115" y1="223" y2="218" class="taskgraphline" style="stroke:black"/>
<text x="115" y="235" style="fill:black;font-family:sans-serif;text-anchor:middle">32</text>
<rect width="1" height="200" x="115" y="20" style="fill:#AAAAFF"/>
<rect width="1" height="200" x="116" y="20" style="fill:#AAAAFF"/>
<rect width="1" height="200" x="117" y="20" style="fill:#AAAAFF"/>
<rect width="1" height="200" x="118" y="20" style="fill:#AAAAFF"/>
<rect width="1" height="200" x="119" y="20" style="fill:#AAAAFF"/>
<rect width="1" height="200" x="120" y="20" style="fill:#AAAAFF"/>
<rect width="1" height="200" x="121" y="20" style="fill:#AAAAFF"/>
<rect width="1" height="200" x="122" y="20" style="fill:#AAAAFF"/>
<rect width="1" height="200" x="124" y="20" style="fill:#AAAAFF"/>
<rect width="1" height="200" x="125" y="20" style="fill:#AAAAFF"/>
<rect width="1" height="200" x="126" y="20" style="fill:#AAAAFF"/>
<rect width="1" height="200" x="127" y="20" style="fill:#AAAAFF"/>
<rect width="1" height="200" x="128" y="20" style="fill:#AAAAFF"/>
<rect width="1" height="200" x="129" y="20" style="fill:#AAAAFF"/>
<rect width="1" height="200" x="130" y="20" style="fill:#AAAAFF"/>
<rect width="1" height="200" x="131" y="20" style="fill:#AAAAFF"/>
<rect width="1" height="200" x="132" y="20" style="fill:#AAAAFF"/>
<rect width="1" height="200" x="133" y="20" style="fill:#AAAAFF"/>
<rect width="1" height="200" x="135" y="20" style="fill:#AAAAFF"/>
<rect width="1" height="200" x="136" y="20" style="fill:#AAAAFF"/>
<rect width="1" height="200" x="137" y="20" style="fill:#AAAAFF"/>
<rect width="1" height="200" x="138" y="20" style="fill:#AAAAFF"/>
<rect width="1" height="200" x="139" y="20" style="fill:#AAAAFF"/>
<rect width="1" height="200" x="140" y="20" style="fill:#AAAAFF"/>
<rect width="1" height="200" x="141" y="20" style="fill:#AAAAFF"/>
<rect width="1" height="200" x="142" y="20" style="fill:#AAAAFF"/>
<rect width="1" height="200" x="143" y="20" style="fill:#AAAAFF"/>
<rect width="1" height="200" x="144" y="20" style="fill:#AAAAFF"/>
<rect width="1" height="200" x="146" y="20" style="fill:#AAAAFF"/>
<rect width="1" height="200" x="147" y="20" style="fill:#AAAAFF"/>
<rect width="1" height="200" x="148" y="20" style="fill:#AAAAFF"/>
<rect width="1" height="200" x="149" y="20" style="fill:#AAAAFF"/>
<line x1="150" x2="150" y1="223" y2="218" class="taskgraphline" style="stroke:black"/>
<text x="150" y="235" style="fill:black;font-family:sans-serif;text-anchor:middle">64</text>
<rect width="1" height="200" x="150" y="20" style="fill:#AAAAFF"/>
<rect width="1" height="200" x="151" y="20" style="fill:#AAAAFF"/>
<rect width="1" height="200" x="152" y="20" style="fill:#AAAAFF"/>
<rect width="1" height="200" x="153" y="20" style="fill:#AAAAFF"/>
<rect width="1" height="200" x="154" y="20" style="fill:#AAAAFF"/>
<rect width="1" height="200" x="155" y="20" style="fill:#AAAAFF"/>
<rect width="1" height="200" x="157" y="20" style="fill:#AAAAFF"/>
<rect width="1" height="200" x="158" y="20" style="fill:#AAAAFF"/>
<rect width="1" height="200" x="159" y="20" style="fill:#AAAAFF"/>
<rect width="1" height="200" x="160" y="20" style="fill:#AAAAFF"/>
<rect width="1" height="200" x="161" y="20" style="fill:#AAAAFF"/>
<rect width="1" height="200" x="162" y="20" style="fill:#AAAAFF"/>
<rect width="1" height="200" x="163" y="20" style="fill:#AAAAFF"/>
<rect width="1" height="200" x="164" y="20" style="fill:#AAAAFF"/>
<rect width="1" height="200" x="165" y="20" style="fill:#AAAAFF"/>
<rect width="1" height="200" x="166" y="20" style="fill:#AAAAFF"/>
<rect width="1" height="200" x="168" y="20" style="fill:#AAAAFF"/>
<rect width="1" height="200" x="169" y="20" style="fill:#AAAAFF"/>
<rect width="1" height="200" x="170" y="20" style="fill:#AAAAFF"/>
<rect width="1" height="200" x="171" y="20" style="fill:#AAAAFF"/>
<rect width="1" height="200" x="172" y="20" style="fill:#AAAAFF"/>
<rect width="1" height="200" x="173" y="20" style="fill:#AAAAFF"/>
<rect width="1" height="200" x="174" y="20" style="fill:#AAAAFF"/>
<rect width="1" height="200" x="175" y="20" style="fill:#AAAAFF"/>
<rect width="1" height="200" x="176" y="20" style="fill:#AAAAFF"/>
<rect width="1" height="200" x="177" y="20" style="fill:#AAAAFF"/>
<rect width="1" height="200" x="179" y="20" style="fill:#AAAAFF"/>
<rect width="1" height="200" x="180" y="20" style="fill:#AAAAFF"/>
<rect width="1" height="200" x="181" y="20" style="fill:#AAAAFF"/>
<rect width="1" height="200" x="182" y="20" style="fill:#AAAAFF"/>
<rect width="1" height="200" x="183" y="20" style="fill:#AAAAFF"/>
<rect width="1" height="200" x="184" y="20" style="fill:#AAAAFF"/>
<line x1="185" x2="185" y1="223" y2="218" class="taskgraphline" style="stroke:black"/>
<text x="185" y="235" style="fill:black;font-family:sans-serif;text-anchor:middle">96</text>
<rect width="1" height="200" x="185" y="20" style="fill:#AAAAFF"/>
<rect width="1" height="200" x="186" y="20" style="fill:#AAAAFF"/>
<rect width="1" height="200" x="187" y="20" style="fill:#AAAAFF"/>
<rect width="1" height="200" x="188" y="20" style="fill:#AAAAFF"/>
<rect width="1" height="200" x="190" y="20" style="fill:#AAAAFF"/>
<rect width="1" height="200" x="191" y="20" style="fill:#AAAAFF"/>
<rect width="1" height="200" x="192" y="20" style="fill:#AAAAFF"/>
<rect width="1" height="200" x="193" y="20" style="fill:#AAAAFF"/>
<rect width="1" height="200" x="194" y="20" style="fill:#AAAAFF"/>
<rect width="1" height="200" x="195" y="20" style="fill:#AAAAFF"/>
<rect width="1" height="200" x="196" y="20" style="fill:#AAAAFF"/>
<rect width="1" height="200" x="197" y="20" style="fill:#AAAAFF"/>
<rect width="1" height="200" x="198" y="20" style="fill:#AAAAFF"/>
<rect width="1" height="200" x="199" y="20" style="fill:#AAAAFF"/>
<rect width="1" height="200" x="201" y="20" style="fill:#AAAAFF"/>
<rect width="1" height="200" x="202" y="20" style="fill:#AAAAFF"/>
<rect width="1" height="200" x="203" y="20" style="fill:#AAAAFF"/>
<rect width="1" height="200" x="204" y="20" style="fill:#AAAAFF"/>
<rect width="1" height="200" x="205" y="20" style="fill:#AAAAFF"/>
<rect width="1" height="200" x="206" y="20" style="fill:#AAAAFF"/>
<rect width="1" height="200" x="207" y="20" style="fill:#AAAAFF"/>
<rect width="1" height="200" x="208" y="20" style="fill:#AAAAFF"/>
<rect width="1" height="200" x="209" y="20" style="fill:#AAAAFF"/>
<rect width="1" height="200" x="210" y="20" style="fill:#AAAAFF"/>
<rect width="1" height="200" x="212" y="20" style="fill:#AAAAFF"/>
<rect width="1" height="200" x="213" y="20" style="fill:#AAAAFF"/>
<rect width="1" height="200" x="214" y="20" style="fill:#AAAAFF"/>
<rect width="1" height="200" x="215" y="20" style="fill:#AAAAFF"/>
<rect width="1" height="200" x="216" y="20" style="fill:#AAAAFF"/>
<rect width="1" height="200" x="217" y="20" style="fill:#AAAAFF"/>
<rect width="1" height="200" x="218" y="20" style="fill:#AAAAFF"/>
<rect width="1" height="200" x="219" y="20" style="fill:#AAAAFF"/>
<line x1="220" x2="220" y1="223" y2="218" class="taskgraphline" style="stroke:black"/>
<text x="220" y="235" style="fill:black;font-family:sans-serif;text-anchor:middle">128</text>
<rect width="1" height="200" x="220" y="20" style="fill:#AAAAFF"/>
<rect width="1" height="200" x="221" y="20" style="fill:#AAAAFF"/>
<rect width="1" height="200" x="223" y="20" style="fill:#AAAAFF"/>
<rect width="1" height="200" x="224" y="20" style="fill:#AAAAFF"/>
<rect width="1" height="200" x="225" y="20" style="fill:#AAAAFF"/>
<rect width="1" height="200" x="226" y="20" style="fill:#AAAAFF"/>
<rect width="1" height="200" x="227" y="20" style="fill:#AAAAFF"/>
<rect width="1" height="200" x="228" y="20" style="fill:#AAAAFF"/>
<rect width="1" height="200" x="229" y="20" style="fill:#AAAAFF"/>
<rect width="1" height="200" x="230" y="20" style="fill:#AAAAFF"/>
<rect width="1" height="200" x="231" y="20" style="fill:#AAAAFF"/>
<rect width="1" height="200" x="232" y="20" style="fill:#AAAAFF"/>
<rect width="1" height="200" x="234" y="20" style="fill:#AAAAFF"/>
<rect width="1" height="200" x="235" y="20" style="fill:#AAAAFF"/>
<rect width="1" height="200" x="236" y="20" style="fill:#AAAAFF"/>
<rect width="1" height="200" x="237" y="20" style="fill:#AAAAFF"/>
<rect width="1" height="200" x="238" y="20" style="fill:#AAAAFF"/>
<rect width="1" height="200" x="239" y="20" style="fill:#AAAAFF"/>
<rect width="1" height="200" x="240" y="20" style="fill:#AAAAFF"/>
<rect width="1" height="200" x="241" y="20" style="fill:#AAAAFF"/>
<rect width="1" height="200" x="242" y="20" style="fill:#AAAAFF"/>
<rect width="1" height="200" x="243" y="20" style="fill:#AAAAFF"/>
<rect width="1" height="200" x="245" y="20" style="fill:#AAAAFF"/>
<rect width="1" height="200" x="246" y="20" style="fill:#AAAAFF"/>
<rect width="1" height="200" x="247" y="20" style="fill:#AAAAFF"/>
<rect width="1" height="200" x="248" y="20" style="fill:#AAAAFF"/>
<rect width="1" height="200" x="249" y="20" style="fill:#AAAAFF"/>
<rect width="1" height="200" x="250" y="20" style="fill:#AAAAFF"/>
<rect width="1" height="200" x="251" y="20" style="fill:#AAAAFF"/>
<rect width="1" height="200" x="252" y="20" style="fill:#AAAAFF"/>
<rect width="1" height="200" x="253" y="20" style="fill:#AAAAFF"/>
<rect width="1" height="200" x="254" y="20" style="fill:#AAAAFF"/>
<line x1="256" x2="256" y1="223" y2="218" class="taskgraphline" style="stroke:black"/>
<text x="256" y="235" style="fill:black;font-family:sans-serif;text-anchor:middle">160</text>
<rect width="1" height="200" x="256" y="20" style="fill:#AAAAFF"/>
<rect width="1" height="200" x="257" y="20" style="fill:#AAAAFF"/>
<rect width="1" height="200" x="258" y="20" style="fill:#AAAAFF"/>
<rect width="1" height="200" x="259" y="20" style="fill:#AAAAFF"/>
<rect width="1" height="200" x="260" y="20" style="fill:#AAAAFF"/>
<rect width="1" height="200" x="261" y="20" style="fill:#AAAAFF"/>
<rect width="1" height="200" x="262" y="20" style="fill:#AAAAFF"/>
<rect width="1" height="200" x="263" y="20" style="fill:#AAAAFF"/>
<rect width="1" height="200" x="264" y="20" style="fill:#AAAAFF"/>
<rect width="1" height="200" x="265" y="20" style="fill:#AAAAFF"/>
<rect width="1" height="200" x="267" y="20" style="fill:#AAAAFF"/>
<rect width="1" height="200" x="268" y="20" style="fill:#AAAAFF"/>
<rect width="1" height="200" x="269" y="20" style="fill:#AAAAFF"/>
<rect width="1" height="200" x="270" y="20" style="fill:#AAAAFF"/>
<rect width="1" height="200" x="271" y="20" style="fill:#AAAAFF"/>
<rect width="1" height="200" x="272" y="20" style="fill:#AAAAFF"/>
<rect width="1" height="200" x="273" y="20" style="fill:#AAAAFF"/>
<rect width="1" height="200" x="274" y="20" style="fill:#AAAAFF"/>
<rect width="1" height="200" x="275" y="20" style="fill:#AAAAFF"/>
<rect width="1" height="200" x="276" y="20" style="fill:#AAAAFF"/>
<rect width="1" height="200" x="278" y="20" style="fill:#AAAAFF"/>
<rect width="1" height="200" x="279" y="20" style="fill:#AAAAFF"/>
<rect width="1" height="200" x="280" y="20" style="fill:#AAAAFF"/>
<rect width="1" height="200" x="281" y="20" style="fill:#AAAAFF"/>
<rect width="1" height="200" x="282" y="20" style="fill:#AAAAFF"/>
<rect width="1" height="200" x="283" y="20" style="fill:#AAAAFF"/>
<rect width="1" height="200" x="284" y="20" style="fill:#AAAAFF"/>
<rect width="1" height="200" x="285" y="20" style="fill:#AAAAFF"/>
<rect width="1" height="200" x="286" y="20" style="fill:#AAAAFF"/>
<rect width="1" height="200" x="287" y="20" style="fill:#AAAAFF"/>
<rect width="1" height="200" x="289" y="20" style="fill:#AAAAFF"/>
<rect width="1" height="200" x="290" y="20" style="fill:#AAAAFF"/>
<line x1="291" x2="291" y1="223" y2="218" class="taskgraphline" style="stroke:black"/>
<text x="291" y="235" style="fill:black;font-family:sans-serif;text-anchor:middle">192</text>
<rect width="1" height="200" x="291" y="20" style="fill:#AAAAFF"/>
<rect width="1" height="200" x="292" y="20" style="fill:#AAAAFF"/>
<rect width="1" height="200" x="293" y="20" style="fill:#AAAAFF"/>
<rect width="1" height="200" x="294" y="20" style="fill:#AAAAFF"/>
<rect width="1" height="200" x="295" y="20" style="fill:#AAAAFF"/>
<rect width="1" height="200" x="296" y="20" style="fill:#AAAAFF"/>
<rect width="1" height="200" x="297" y="20" style="fill:#AAAAFF"/>
<rect width="1" height="200" x="298" y="20" style="fill:#AAAAFF"/>
<rect width="1" height="200" x="300" y="20" style="fill:#AAAAFF"/>
<rect width="1" height="200" x="301" y="20" style="fill:#AAAAFF"/>
<rect width="1" height="200" x="302" y="20" style="fill:#AAAAFF"/>
<rect width="1" height="200" x="303" y="20" style="fill:#AAAAFF"/>
<rect width="1" height="200" x="304" y="20" style="fill:#AAAAFF"/>
<rect width="1" height="200" x="305" y="20" style="fill:#AAAAFF"/>
<rect width="1" height="200" x="306" y="20" style="fill:#AAAAFF"/>
<rect width="1" height="200" x="307" y="20" style="fill:#AAAAFF"/>
<rect width="1" height="200" x="308" y="20" style="fill:#AAAAFF"/>
<rect width="1" height="200" x="309" y="20" style="fill:#AAAAFF"/>
<rect width="1" height="200" x="311" y="20" style="fill:#AAAAFF"/>
<rect width="1" height="200" x="312" y="20" style="fill:#AAAAFF"/>
<rect width="1" height="200" x="313" y="20" style="fill:#AAAAFF"/>
<rect width="1" height="200" x="314" y="20" style="fill:#AAAAFF"/>
<rect width="1" height="200" x="315" y="20" style="fill:#AAAAFF"/>
<rect width="1" height="200" x="316" y="20" style="fill:#AAAAFF"/>
<rect width="1" height="200" x="317" y="20" style="fill:#AAAAFF"/>
<rect width="1" height="200" x="318" y="20" style="fill:#AAAAFF"/>
<rect width="1" height="200" x="319" y="20" style="fill:#AAAAFF"/>
<rect width="1" height="200" x="320" y="20" style="fill:#AAAAFF"/>
<rect width="1" height="200" x="322" y="20" style="fill:#AAAAFF"/>
<rect width="1" height="200" x="323" y="20" style="fill:#AAAAFF"/>
<rect width="1" height="200" x="324" y="20" style="fill:#AAAAFF"/>
<rect width="1" height="200" x="325" y="20" style="fill:#AAAAFF"/>
<line x1="326" x2="326" y1="223" y2="218" class="taskgraphline" style="stroke:black"/>
<text x="326" y="235" style="fill:black;font-family:sans-serif;text-anchor:middle">224</text>
<rect width="1" height="200" x="326" y="20" style="fill:#AAAAFF"/>
<rect width="1" height="200" x="327" y="20" style="fill:#AAAAFF"/>
<rect width="1" height="200" x="328" y="20" style="fill:#AAAAFF"/>
<rect width="1" height="200" x="329" y="20" style="fill:#AAAAFF"/>
<rect width="1" height="200" x="330" y="20" style="fill:#AAAAFF"/>
<rect width="1" height="200" x="331" y="20" style="fill:#AAAAFF"/>
<rect width="1" height="200" x="333" y="20" style="fill:#AAAAFF"/>
<rect width="1" height="200" x="334" y="20" style="fill:#AAAAFF"/>
<rect width="1" height="200" x="335" y="20" style="fill:#AAAAFF"/>
<rect width="1" height="200" x="336" y="20" style="fill:#AAAAFF"/>
<rect width="1" height="200" x="337" y="20" style="fill:#AAAAFF"/>
<rect width="1" height="200" x="338" y="20" style="fill:#AAAAFF"/>
<rect width="1" height="200" x="339" y="20" style="fill:#AAAAFF"/>
<rect width="1" height="200" x="340" y="20" style="fill:#AAAAFF"/>
<rect width="1" height="200" x="341" y="20" style="fill:#AAAAFF"/>
<rect width="1" height="200" x="342" y="20" style="fill:#AAAAFF"/>
<rect width="1" height="200" x="344" y="20" style="fill:#AAAAFF"/>
<rect width="1" height="200" x="345" y="20" style="fill:#AAAAFF"/>
<rect width="1" height="200" x="346" y="20" style="fill:#AAAAFF"/>
<rect width="1" height="200" x="347" y="20" style="fill:#AAAAFF"/>
<rect width="1" height="200" x="348" y="20" style="fill:#AAAAFF"/>
<rect width="1" height="200" x="349" y="20" style="fill:#AAAAFF"/>
<rect width="1" height="200" x="350" y="20" style="fill:#AAAAFF"/>
<rect width="1" height="200" x="351" y="20" style="fill:#AAAAFF"/>
<rect width="1" height="200" x="352" y="20" style="fill:#AAAAFF"/>
<rect width="1" height="200" x="353" y="20" style="fill:#AAAAFF"/>
<rect width="1" height="200" x="355" y="20" style="fill:#AAAAFF"/>
<rect width="1" height="200" x="356" y="20" style="fill:#AAAAFF"/>
<rect width="1" height="200" x="357" y="20" style="fill:#AAAAFF"/>
<rect width="1" height="200" x="358" y="20" style="fill:#AAAAFF"/>
<rect width="1" height="200" x="359" y="20" style="fill:#AAAAFF"/>
<rect width="1" height="200" x="360" y="20" style="fill:#AAAAFF"/>
<line x1="361" x2="361" y1="223" y2="218" class="taskgraphline" style="stroke:black"/>
<text x="361" y="235" style="fill:black;font-family:sans-serif;text-anchor:middle">256</text>
<rect width="1" height="200" x="361" y="20" style="fill:#AAAAFF"/>
<rect width="1" height="200" x="362" y="20" style="fill:#AAAAFF"/>
<rect width="1" height="200" x="363" y="20" style="fill:#AAAAFF"/>
<rect width="1" height="200" x="364" y="20" style="fill:#AAAAFF"/>
<rect width="1" height="200" x="366" y="20" style="fill:#AAAAFF"/>
<rect width="1" height="200" x="367" y="20" style="fill:#AAAAFF"/>
<rect width="1" height="200" x="368" y="20" style="fill:#AAAAFF"/>
<rect width="1" height="200" x="369" y="20" style="fill:#AAAAFF"/>
<rect width="1" height="200" x="370" y="20" style="fill:#AAAAFF"/>
<rect width="1" height="200" x="371" y="20" style="fill:#AAAAFF"/>
<rect width="1" height="200" x="372" y="20" style="fill:#AAAAFF"/>
<rect width="1" height="200" x="373" y="20" style="fill:#AAAAFF"/>
<rect width="1" height="200" x="374" y="20" style="fill:#AAAAFF"/>
<rect width="1" height="200" x="375" y="20" style="fill:#AAAAFF"/>
<rect width="1" height="200" x="377" y="20" style="fill:#AAAAFF"/>
<rect width="1" height="200" x="378" y="20" style="fill:#AAAAFF"/>
<rect width="1" height="200" x="379" y="20" style="fill:#AAAAFF"/>
<rect width="1" height="200" x="380" y="20" style="fill:#AAAAFF"/>
<rect width="1" height="200" x="381" y="20" style="fill:#AAAAFF"/>
<rect width="1" height="200" x="382" y="20" style="fill:#AAAAFF"/>
<rect width="1" height="200" x="383" y="20" style="fill:#AAAAFF"/>
<rect width="1" height="200" x="384" y="20" style="fill:#AAAAFF"/>
<rect width="1" height="200" x="385" y="20" style="fill:#AAAAFF"/>
<rect width="1" height="200" x="386" y="20" style="fill:#AAAAFF"/>
<rect width="1" height="200" x="388" y="20" style="fill:#AAAAFF"/>
<rect width="1" height="200" x="389" y="20" style="fill:#AAAAFF"/>
<rect width="1" height="200" x="390" y="20" style="fill:#AAAAFF"/>
<rect width="1" height="200" x="391" y="20" style="fill:#AAAAFF"/>
<rect width="1" height="200" x="392" y="20" style="fill:#AAAAFF"/>
<rect width="1" height="200" x="393" y="20" style="fill:#AAAAFF"/>
<rect width="1" height="200" x="394" y="20" style="fill:#AAAAFF"/>
<rect width="1" height="200" x="395" y="20" style="fill:#AAAAFF"/>
<line x1="396" x2="396" y1="223" y2="218" class="taskgraphline" style="stroke:black"/>
<text x="396" y="235" style="fill:black;font-family:sans-serif;text-anchor:middle">288</text>
<rect width="1" height="200" x="396" y="20" style="fill:#AAAAFF"/>
<rect width="1" height="200" x="397" y="20" style="fill:#AAAAFF"/>
<rect width="1" height="200" x="399" y="20" style="fill:#AAAAFF"/>
<rect width="1" height="200" x="400" y="20" style="fill:#AAAAFF"/>
<rect width="1" height="200" x="401" y="20" style="fill:#AAAAFF"/>
<rect width="1" height="200" x="402" y="20" style="fill:#AAAAFF"/>
<rect width="1" height="200" x="403" y="20" style="fill:#AAAAFF"/>
<rect width="1" height="200" x="404" y="20" style="fill:#AAAAFF"/>
<rect width="1" height="200" x="405" y="20" style="fill:#AAAAFF"/>
<rect width="1" height="200" x="406" y="20" style="fill:#AAAAFF"/>
<rect width="1" height="200" x="407" y="20" style="fill:#AAAAFF"/>
<rect width="1" height="200" x="408" y="20" style="fill:#AAAAFF"/>
<rect width="1" height="200" x="410" y="20" style="fill:#AAAAFF"/>
<rect width="1" height="200" x="411" y="20" style="fill:#AAAAFF"/>
<rect width="1" height="200" x="412" y="20" style="fill:#AAAAFF"/>
<rect width="1" height="200" x="413" y="20" style="fill:#AAAAFF"/>
<rect width="1" height="200" x="414" y="20" style="fill:#AAAAFF"/>
<rect width="1" height="200" x="415" y="20" style="fill:#AAAAFF"/>
<rect width="1" height="200" x="416" y="20" style="fill:#AAAAFF"/>
<rect width="1" height="200" x="417" y="20" style="fill:#AAAAFF"/>
<rect width="1" height="200" x="418" y="20" style="fill:#AAAAFF"/>
<rect width="1" height="200" x="419" y="20" style="fill:#AAAAFF"/>
<rect width="1" height="200" x="421" y="20" style="fill:#AAAAFF"/>
<rect width="1" height="200" x="422" y="20" style="fill:#AAAAFF"/>
<rect width="1" height="200" x="423" y="20" style="fill:#AAAAFF"/>
<rect width="1" height="200" x="424" y="20" style="fill:#AAAAFF"/>
<rect width="1" height="200" x="425" y="20" style="fill:#AAAAFF"/>
<rect width="1" height="200" x="426" y="20" style="fill:#AAAAFF"/>
<line x1="77" x2="82" y1="20" y2="20" class="taskgraphline" style="stroke:black"/>
<text x="70" y="24" style="fill:black;font-family:sans-serif;text-anchor:end">100</text>
<line x1="77" x2="82" y1="40" y2="40" class="taskgraphline" style="stroke:black"/>
<text x="70" y="44" style="fill:black;font-family:sans-serif;text-anchor:end">90</text>
<line x1="77" x2="82" y1="60" y2="60" class="taskgraphline" style="stroke:black"/>
<text x="70" y="64" style="fill:black;font-family:sans-serif;text-anchor:end">80</text>
<line x1="77" x2="82" y1="80" y2="80" class="taskgraphline" style="stroke:black"/>
<text x="70" y="84" style="fill:black;font-family:sans-serif;text-anchor:end">70</text>
<line x1="77" x2="82" y1="100" y2="100" class="taskgraphline" style="stroke:black"/>
<text x="70" y="104" style="fill:black;font-family:sans-serif;text-anchor:end">60</text>
<line x1="77" x2="82" y1="120" y2="120" class="taskgraphline" style="stroke:black"/>
<text x="70" y="124" style="fill:black;font-family:sans-serif;text-anchor:end">50</text>
<line x1="77" x2="82" y1="140" y2="140" class="taskgraphline" style="stroke:black"/>
<text x="70" y="144" style="fill:black;font-family:sans-serif;text-anchor:end">40</text>
<line x1="77" x2="82" y1="160" y2="160" class="taskgraphline" style="stroke:black"/>
<text x="70" y="164" style="fill:black;font-family:sans-serif;text-anchor:end">30</text>
<line x1="77" x2="82" y1="180" y2="180" class="taskgraphline" style="stroke:black"/>
<text x="70" y="184" style="fill:black;font-family:sans-serif;text-anchor:end">20</text>
<line x1="77" x2="82" y1="200" y2="200" class="taskgraphline" style="stroke:black"/>
<text x="70" y="204" style="fill:black;font-family:sans-serif;text-anchor:end">10</text>
<line x1="77" x2="82" y1="220" y2="220" class="taskgraphline" style="stroke:black"/>
<text x="70" y="224" style="fill:black;font-family:sans-serif;text-anchor:end">0</text>
</svg>